# xmcd CD database file
#
# Track frame offsets:
#	150
#	20720
#	41459
#	55044
#	77489
#	104406
#	123801
#	141084
#	157510
#	183421
#	200114
#	215609
#	229454
#	248595
#
# Disc length: 3823 seconds
#
# Revision: 0
# Processed by: cddbd v1.4PL0 Copyright (c) Steve Scherf et al.
# Submitted via: CDex 1.50
#
DISCID=b70eed0e
DTITLE=Doma - Ludika
DYEAR=2000
DGENRE=Jazz
TTITLE0=Swing de Beaumont
TTITLE1=C jam swing
TTITLE2=Hymne à l'amour
TTITLE3=Ludika
TTITLE4=Minor swing
TTITLE5=Ballade d'hiver
TTITLE6=Nonchalance
TTITLE7=Allez simple
TTITLE8=Anecdote
TTITLE9=Pourquoi pas
TTITLE10=Chtonk
TTITLE11=Ida y vuelta
TTITLE12=Sollicitude
TTITLE13=Caroline
EXTD=YEAR: 2000
EXTT0=
EXTT1=
EXTT2=
EXTT3=
EXTT4=
EXTT5=
EXTT6=
EXTT7=
EXTT8=
EXTT9=
EXTT10=
EXTT11=
EXTT12=
EXTT13=
PLAYORDER=
